<?xml version="1.0" encoding="UTF-8"?>
<svg id="Layer_1" data-name="Layer 1" xmlns="http://www.w3.org/2000/svg" viewBox="0 0 1272.68 272.62">
  <defs>
    <style>
      .cls-1 {
        fill: #231f20;
        stroke-width: 0px;
      }
    </style>
  </defs>
  <path class="cls-1" d="M31.11,131.51c0-38.65,24-65.68,61.89-65.68,33.6,0,56.58,23.24,58.1,60.37.25,4.04,0,5.81-.25,9.85H60.16c.25,22.74,12.13,41.68,33.85,41.68,12.63,0,24-7.07,26.78-23.24h29.05c-5.05,29.56-26.52,44.71-54.82,44.71-39.91,0-63.91-27.79-63.91-67.7ZM121.54,119.39c-1.01-22.23-14.4-31.83-28.54-31.83-16.67,0-30.57,11.62-31.83,31.58v.25h60.37Z"/>
  <path class="cls-1" d="M294.59,132.02c0,42.19-24.25,66.94-54.31,66.94-15.91,0-29.3-7.33-37.39-17.68v67.95h-27.53V69.37h26.52l.25,14.65c9.35-11.62,23.24-18.95,38.65-18.95,29.56,0,53.81,23.49,53.81,66.94ZM234.47,177.74c16.67,0,32.08-14.9,32.08-45.97s-13.89-45.47-32.08-45.47c-20.71,0-32.59,15.66-32.59,45.47s11.87,45.97,32.59,45.97Z"/>
  <path class="cls-1" d="M318.33,197.91V20.16h23.32v44.5h47.23l31.78,13.32,3.5,3.46,14.58,30.65v85.81h-23.32v-80.48l-6.12-16.79-9.91-9.06-16.33-5.6h-41.4v111.93h-23.32Z"/>
  <path class="cls-1" d="M462.36,132.43c0-38.65,24-65.68,61.89-65.68,33.6,0,56.58,23.24,58.1,60.37.25,4.04,0,5.81-.25,9.85h-90.69c.25,22.74,12.13,41.68,33.85,41.68,12.63,0,24-7.07,26.78-23.24h29.05c-5.05,29.56-26.52,44.71-54.82,44.71-39.91,0-63.91-27.79-63.91-67.7ZM552.8,120.3c-1.01-22.23-14.4-31.83-28.54-31.83-16.67,0-30.57,11.62-31.83,31.58v.25h60.37Z"/>
  <path class="cls-1" d="M754.69,89.63c-18.95,0-31.07,14.58-34.1,36.85v70.88h-27.54v-79.07c0-18.17-7.58-28.66-24.25-28.66-19.45,0-34.36,18.94-34.86,47.08v60.64h-27.53v-127.94h27.53v24.82c11.11-20.73,27.53-28.15,44.96-28.15,19.96,0,35.37,9.47,40.17,28.66,11.37-22.01,27.79-28.66,45.72-28.66,24.25,0,41.68,15.35,41.68,44.01v87.25h-27.53v-79.07c0-18.17-7.58-28.66-24.25-28.66Z"/>
  <path class="cls-1" d="M897.35,201.26c-38.11,0-66.2-28.58-66.2-66.69s28.09-66.45,65.96-66.45,61.81,28.58,61.81,66.45c0,2.44-.24,6.6-.49,8.55h-106.76c3.42,24.19,21.25,40.55,45.93,40.55,16.86,0,30.05-7.08,39.82-19.3l11.48,11.73c-12.21,16.37-30.05,25.16-51.55,25.16ZM851.67,126.51h87.7c-1.47-23.7-18.32-41.04-42.51-41.04s-42.02,16.61-45.19,41.04Z"/>
  <path class="cls-1" d="M1043.19,72.03v17.34h-36.64v107.98h-19.54v-125.32h56.19Z"/>
  <path class="cls-1" d="M1147.41,84.56l3.46,3.26,13.32,28.82v39.85l5.6,12.53,14.39,13.53,2.13,6.27v8.52h-9.06l-6.66-2.01-12.26-11.53-6.66-2.01-32.25,15.54h-19.99l-28.78-12.53-9.86-19.8-4.53-4.26v-10.28l4.53-4.26,9.86-18.55,28.78-12.53h43.44v-6.52l-3.46-5.26-8.53-8.02-5.6-3.26h-49.03v-20.05h42.37l28.78,12.53ZM1105.04,133.44l-12.79,3.51-9.06,8.52-2.4,6.27v7.52l2.4,6.27,9.06,8.77,12.79,3.01h9.06l14.92-5.26,8.26-7.77,5.6-15.79v-15.04h-37.84Z"/>
  <path class="cls-1" d="M1240.95,15.82v181.53h-27.53V15.82h27.53Z"/>
</svg>